<svg xmlns="http://www.w3.org/2000/svg" viewBox="0 0 100 100" width="100" height="100">
  <circle cx="50" cy="50" r="45" fill="#8D6E63"/>
  <ellipse cx="50" cy="58" rx="30" ry="25" fill="#FFCC80"/>
  <circle cx="40" cy="50" r="5" fill="white"/><circle cx="41" cy="50" r="3" fill="#333"/>
  <circle cx="60" cy="50" r="5" fill="white"/><circle cx="61" cy="50" r="3" fill="#333"/>
  <ellipse cx="50" cy="60" rx="5" ry="3.5" fill="#795548"/>
  <path d="M42,68 Q50,74 58,68" fill="none" stroke="#5D4037" stroke-width="2" stroke-linecap="round"/>
  <polygon points="30,20 35,38 22,35" fill="#795548"/><polygon points="42,12 44,32 35,25" fill="#795548"/>
  <polygon points="58,12 56,32 65,25" fill="#795548"/><polygon points="70,20 65,38 78,35" fill="#795548"/>
  <polygon points="50,8 48,28 52,28" fill="#795548"/>
</svg>