<svg xmlns="http://www.w3.org/2000/svg" viewBox="0 0 100 100" width="100" height="100">
  <circle cx="50" cy="55" r="35" fill="#F44336"/>
  <line x1="50" y1="20" x2="50" y2="90" stroke="#333" stroke-width="2"/>
  <circle cx="35" cy="45" r="7" fill="#333"/>
  <circle cx="65" cy="45" r="7" fill="#333"/>
  <circle cx="38" cy="68" r="6" fill="#333"/>
  <circle cx="62" cy="68" r="6" fill="#333"/>
  <circle cx="50" cy="28" r="14" fill="#333"/>
  <circle cx="44" cy="25" r="4" fill="white"/><circle cx="45" cy="25" r="2.5" fill="#333"/>
  <circle cx="56" cy="25" r="4" fill="white"/><circle cx="57" cy="25" r="2.5" fill="#333"/>
  <path d="M46,32 Q50,36 54,32" fill="none" stroke="white" stroke-width="1.5" stroke-linecap="round"/>
  <path d="M40,12 Q38,5 35,3" stroke="#333" stroke-width="2" fill="none" stroke-linecap="round"/>
  <path d="M60,12 Q62,5 65,3" stroke="#333" stroke-width="2" fill="none" stroke-linecap="round"/>
  <circle cx="35" cy="3" r="3" fill="#333"/><circle cx="65" cy="3" r="3" fill="#333"/>
</svg>