<svg xmlns="http://www.w3.org/2000/svg" viewBox="0 0 100 100" width="100" height="100">
  <ellipse cx="50" cy="40" rx="30" ry="28" fill="#CE93D8"/>
  <circle cx="40" cy="35" r="6" fill="white"/><circle cx="41" cy="35" r="3.5" fill="#333"/>
  <circle cx="60" cy="35" r="6" fill="white"/><circle cx="61" cy="35" r="3.5" fill="#333"/>
  <path d="M44,48 Q50,54 56,48" fill="none" stroke="#7B1FA2" stroke-width="2.5" stroke-linecap="round"/>
  <path d="M20,55 Q15,75 22,85" stroke="#CE93D8" stroke-width="6" fill="none" stroke-linecap="round"/>
  <path d="M30,60 Q25,78 30,88" stroke="#CE93D8" stroke-width="6" fill="none" stroke-linecap="round"/>
  <path d="M42,63 Q40,80 38,90" stroke="#CE93D8" stroke-width="6" fill="none" stroke-linecap="round"/>
  <path d="M58,63 Q60,80 62,90" stroke="#CE93D8" stroke-width="6" fill="none" stroke-linecap="round"/>
  <path d="M70,60 Q75,78 70,88" stroke="#CE93D8" stroke-width="6" fill="none" stroke-linecap="round"/>
  <path d="M80,55 Q85,75 78,85" stroke="#CE93D8" stroke-width="6" fill="none" stroke-linecap="round"/>
</svg>