<svg xmlns="http://www.w3.org/2000/svg" viewBox="0 0 100 100" width="100" height="100">
  <ellipse cx="50" cy="55" rx="30" ry="22" fill="#EF5350"/>
  <circle cx="38" cy="48" r="6" fill="white"/><circle cx="39" cy="48" r="3.5" fill="#333"/>
  <circle cx="62" cy="48" r="6" fill="white"/><circle cx="63" cy="48" r="3.5" fill="#333"/>
  <path d="M44,62 Q50,68 56,62" fill="none" stroke="#B71C1C" stroke-width="2.5" stroke-linecap="round"/>
  <path d="M22,48 Q10,35 8,28" stroke="#EF5350" stroke-width="5" fill="none" stroke-linecap="round"/>
  <path d="M8,28 Q5,22 12,22 Q18,22 15,28" fill="#EF5350"/>
  <path d="M78,48 Q90,35 92,28" stroke="#EF5350" stroke-width="5" fill="none" stroke-linecap="round"/>
  <path d="M92,28 Q95,22 88,22 Q82,22 85,28" fill="#EF5350"/>
  <path d="M30,72 Q25,82 28,88" stroke="#EF5350" stroke-width="4" fill="none" stroke-linecap="round"/>
  <path d="M42,75 Q40,85 42,90" stroke="#EF5350" stroke-width="4" fill="none" stroke-linecap="round"/>
  <path d="M58,75 Q60,85 58,90" stroke="#EF5350" stroke-width="4" fill="none" stroke-linecap="round"/>
  <path d="M70,72 Q75,82 72,88" stroke="#EF5350" stroke-width="4" fill="none" stroke-linecap="round"/>
</svg>