<svg xmlns="http://www.w3.org/2000/svg" viewBox="0 0 100 100" width="100" height="100">
  <rect x="42" y="15" width="16" height="45" rx="8" fill="#FFCA28"/>
  <circle cx="50" cy="15" r="18" fill="#FFCA28"/>
  <circle cx="42" cy="10" r="4" fill="white"/><circle cx="43" cy="10" r="2.5" fill="#333"/>
  <circle cx="58" cy="10" r="4" fill="white"/><circle cx="59" cy="10" r="2.5" fill="#333"/>
  <path d="M38,5 Q36,-2 34,0" stroke="#8D6E63" stroke-width="3" fill="none" stroke-linecap="round"/>
  <path d="M62,5 Q64,-2 66,0" stroke="#8D6E63" stroke-width="3" fill="none" stroke-linecap="round"/>
  <circle cx="34" cy="-1" r="3" fill="#FF8F00"/><circle cx="66" cy="-1" r="3" fill="#FF8F00"/>
  <ellipse cx="50" cy="20" rx="6" ry="3" fill="#FFAB91" opacity="0.5"/>
  <path d="M44,22 Q50,26 56,22" fill="none" stroke="#8D6E63" stroke-width="1.5" stroke-linecap="round"/>
  <circle cx="45" cy="35" r="4" fill="#D4A017" opacity="0.6"/>
  <circle cx="55" cy="42" r="3.5" fill="#D4A017" opacity="0.6"/>
  <circle cx="48" cy="50" r="3" fill="#D4A017" opacity="0.6"/>
  <ellipse cx="50" cy="75" rx="28" ry="20" fill="#FFCA28"/>
  <circle cx="38" cy="72" r="4" fill="#D4A017" opacity="0.6"/>
  <circle cx="62" cy="70" r="5" fill="#D4A017" opacity="0.6"/>
  <circle cx="50" cy="80" r="3.5" fill="#D4A017" opacity="0.6"/>
</svg>