<svg xmlns="http://www.w3.org/2000/svg" viewBox="0 0 100 100" width="100" height="100">
  <ellipse cx="50" cy="58" rx="32" ry="30" fill="white" stroke="#E0E0E0" stroke-width="1"/>
  <circle cx="50" cy="35" r="22" fill="white" stroke="#E0E0E0" stroke-width="1"/>
  <polygon points="50,2 46,22 54,22" fill="#FFD54F" stroke="#FF8F00" stroke-width="1"/>
  <circle cx="42" cy="32" r="4" fill="#CE93D8"/><circle cx="43" cy="32" r="2" fill="#333"/>
  <circle cx="58" cy="32" r="4" fill="#90CAF9"/><circle cx="59" cy="32" r="2" fill="#333"/>
  <path d="M45,42 Q50,46 55,42" fill="none" stroke="#F48FB1" stroke-width="2" stroke-linecap="round"/>
  <ellipse cx="38" cy="38" rx="5" ry="3" fill="#F8BBD0" opacity="0.5"/>
  <ellipse cx="62" cy="38" rx="5" ry="3" fill="#BBDEFB" opacity="0.5"/>
  <path d="M68,30 Q78,25 82,28 Q85,32 80,35 Q76,38 72,35" fill="#F48FB1"/>
  <path d="M28,55 Q22,52 20,56 Q18,60 22,62 Q26,64 28,60" fill="#CE93D8"/>
  <path d="M30,82 Q25,92 28,95" stroke="#F48FB1" stroke-width="3" fill="none" stroke-linecap="round"/>
  <path d="M50,85 Q48,95 50,98" stroke="#CE93D8" stroke-width="3" fill="none" stroke-linecap="round"/>
  <path d="M70,82 Q75,92 72,95" stroke="#90CAF9" stroke-width="3" fill="none" stroke-linecap="round"/>
</svg>