<svg xmlns="http://www.w3.org/2000/svg" viewBox="0 0 100 100" width="100" height="100">
  <circle cx="50" cy="52" r="35" fill="#FFCC80"/>
  <circle cx="22" cy="30" r="14" fill="#FFCC80"/><circle cx="22" cy="30" r="9" fill="#FFAB91"/>
  <circle cx="78" cy="30" r="14" fill="#FFCC80"/><circle cx="78" cy="30" r="9" fill="#FFAB91"/>
  <circle cx="38" cy="44" r="5" fill="white"/><circle cx="39" cy="44" r="3" fill="#333"/>
  <circle cx="62" cy="44" r="5" fill="white"/><circle cx="63" cy="44" r="3" fill="#333"/>
  <ellipse cx="50" cy="56" rx="4" ry="3" fill="#F48FB1"/>
  <path d="M46,56 L44,58 M54,56 L56,58 M46,56 L44,54 M54,56 L56,54" stroke="#999" stroke-width="1" stroke-linecap="round"/>
  <path d="M44,62 Q50,68 56,62" fill="none" stroke="#8D6E63" stroke-width="2" stroke-linecap="round"/>
  <ellipse cx="35" cy="58" rx="10" ry="8" fill="#FFAB91" opacity="0.5"/>
  <ellipse cx="65" cy="58" rx="10" ry="8" fill="#FFAB91" opacity="0.5"/>
</svg>